<?xml version="1.0" encoding="UTF-8"?>
<svg width="32" height="32" viewBox="0 0 300 300" xmlns="http://www.w3.org/2000/svg">  <defs>
    <style>
      .cls-1 {
        fill: #fff;
      }
    </style>
  </defs>
  <path class="cls-1" d="M27.74,22.86c-1.14-1.26-2.32-2.48-3.25-3.92-.73-1.13-.54-2.48.47-3.35.58-.5,1.29-.61,1.99-.68,1.34-.13,2.69-.18,4.04-.25.54-.03.71-.16.75-.64.05-.62-.11-.82-.74-.8-1.71.05-3.41-.07-5.07-.47-1.67-.4-2.4-2.34-1.46-3.76.94-1.41,2.04-2.68,3.25-3.86.39-.38.43-.75.11-1.09-.34-.36-.72-.34-1.11.07-1.04,1.09-2.17,2.06-3.41,2.91-.42.28-.88.56-1.36.67-1.3.31-2.58-.56-2.87-1.9-.36-1.69-.45-3.4-.46-5.12,0-.27-.06-.48-.31-.6-.57-.26-1.08.06-1.11.68,0,.09,0,.19,0,.28-.15,1.55-.23,3.1-.46,4.63-.26,1.75-2.15,2.62-3.64,1.72-.66-.4-1.28-.89-1.88-1.39-.81-.68-1.57-1.41-2.35-2.11-.24-.21-.54-.27-.78-.09-.17.14-.33.4-.34.61,0,.05,0,.11.02.17l6.47,6.47s.06-.07.1-.1c1.77-1.77,4.65-1.77,6.42,0s1.77,4.65,0,6.42c-.03.03-.07.07-.1.1l6.5,6.5c.21.07.41,0,.6-.17.3-.28.28-.6-.03-.95h0Z"/>
  <path class="cls-1" d="M4.01,8.83c1.14,1.26,2.32,2.48,3.25,3.92.73,1.13.54,2.48-.47,3.35-.58.5-1.29.61-1.99.68-1.34.13-2.69.18-4.04.25-.54.03-.71.16-.75.64-.05.62.11.82.74.8,1.71-.05,3.41.07,5.07.47,1.67.4,2.4,2.34,1.46,3.76-.94,1.41-2.04,2.68-3.25,3.86-.39.38-.43.75-.11,1.09.34.36.72.34,1.11-.07,1.04-1.09,2.17-2.06,3.41-2.91.42-.28.88-.56,1.36-.67,1.3-.31,2.58.56,2.87,1.9.36,1.69.45,3.4.46,5.12,0,.27.06.48.31.6.57.26,1.08-.06,1.11-.68,0-.09,0-.19,0-.28.15-1.55.23-3.1.46-4.63.26-1.75,2.15-2.62,3.64-1.72.66.4,1.28.89,1.88,1.39.81.68,1.57,1.41,2.35,2.11.24.21.54.27.78.09.17-.14.33-.4.34-.61,0-.05,0-.11-.02-.17l-6.47-6.47s-.06.07-.1.1c-1.77,1.77-4.65,1.77-6.42,0-1.77-1.77-1.77-4.65,0-6.42.03-.03.07-.07.1-.1l-6.49-6.5c-.21-.07-.41,0-.6.17-.3.28-.28.6.03.95h0Z"/>
</svg>
