<?xml version="1.0" encoding="UTF-8"?>
<svg id="Layer_1" xmlns="http://www.w3.org/2000/svg" viewBox="0 0 32 32">
  <defs>
    <style>
      .cls-1 {
        fill: #fff;
      }
    </style>
  </defs>
  <path class="cls-1" d="M24.03,27.16c.02.06.02.12.02.17,0,.21-.17.47-.34.6-.24.18-.53.12-.77-.09-.77-.69-1.52-1.42-2.33-2.09-.59-.49-1.21-.98-1.86-1.38-1.47-.89-3.35-.03-3.6,1.7-.23,1.51-.31,3.05-.46,4.58v.28c-.03.61-.53.93-1.1.67-.25-.12-.31-.33-.31-.59,0-1.7-.1-3.39-.46-5.07-.29-1.33-1.55-2.19-2.84-1.88-.48.11-.93.39-1.35.66-1.23.84-2.35,1.8-3.37,2.88-.39.41-.76.43-1.1.07-.32-.34-.28-.7.11-1.08,1.2-1.17,2.29-2.42,3.22-3.82.93-1.41.21-3.33-1.45-3.72-1.64-.4-3.33-.51-5.02-.47-.62.02-.78-.18-.73-.79.04-.48.21-.6.74-.63,1.34-.07,2.67-.12,4-.25.69-.07,1.4-.18,1.97-.67,1-.86,1.19-2.2.47-3.32-.92-1.43-2.09-2.63-3.22-3.88l.02.02c-.31-.35-.33-.66-.03-.94.19-.17.39-.24.59-.17l6.42,6.43-.1.1c-1.75,1.75-1.75,4.6,0,6.35,1.75,1.75,4.6,1.75,6.35,0,.04-.03.1-.1.1-.1l6.4,6.4ZM30.98,13.4c-1.69.05-3.37-.07-5.02-.47-1.65-.4-2.38-2.32-1.45-3.72.93-1.4,2.02-2.65,3.22-3.82.39-.38.43-.74.11-1.08-.34-.36-.71-.34-1.1.07-1.03,1.08-2.15,2.04-3.37,2.88-.42.28-.87.55-1.35.66-1.29.31-2.55-.55-2.84-1.88-.36-1.67-.45-3.37-.46-5.07,0-.27-.06-.48-.31-.59-.56-.26-1.07.06-1.1.67v.28c-.15,1.53-.23,3.07-.46,4.58-.26,1.73-2.13,2.59-3.6,1.7-.65-.4-1.27-.88-1.86-1.38-.8-.67-1.55-1.4-2.33-2.09-.24-.21-.53-.27-.77-.09-.17.14-.33.4-.34.6,0,.05,0,.11.02.17l6.4,6.4s.06-.07.1-.1c1.75-1.75,4.6-1.75,6.35,0s1.75,4.6,0,6.35l-.1.1,6.43,6.43c.21.07.41,0,.59-.17.3-.28.28-.59-.03-.94v.02c-1.12-1.25-2.29-2.45-3.21-3.88-.72-1.12-.53-2.45.47-3.32.57-.49,1.28-.6,1.97-.67,1.33-.13,2.66-.18,4-.25.53-.03.7-.16.74-.63.05-.61-.11-.81-.73-.79Z"/>
</svg>