<?xml version="1.0" encoding="UTF-8"?>
<svg width="32" height="32" viewBox="0 0 32 32" xmlns="http://www.w3.org/2000/svg">
  <defs>
    <style>
      .cls-1 {
        fill: #fff;
      }
    </style>
  </defs>
  <path class="cls-1" d="M2.96,2.44c-.12-.13-.25-.26-.35-.42-.08-.12-.06-.26.05-.36.06-.05.14-.07.21-.07.14-.01.29-.02.43-.03.06,0,.08-.02.08-.07,0-.07-.01-.09-.08-.09-.18.01-.36-.01-.54-.05-.18-.04-.26-.25-.16-.4.1-.15.22-.29.35-.41.04-.04.05-.08.01-.12-.04-.04-.08-.04-.12.01-.11.12-.23.22-.36.31-.04.03-.09.06-.15.07-.14.03-.28-.06-.31-.2-.04-.18-.05-.36-.05-.55,0-.03-.01-.05-.03-.06-.06-.03-.12.01-.12.07,0,.01,0,.02,0,.03-.02.17-.02.33-.05.49-.03.19-.23.28-.39.18-.07-.04-.14-.09-.2-.15-.09-.07-.17-.15-.25-.22-.03-.02-.06-.03-.08-.01-.02.01-.04.04-.04.07,0,.01,0,.01,0,.02l.69.69s.01-.01.01-.01c.19-.19.5-.19.69,0,.19.19.19.5,0,.69,0,0-.01.01-.01.01l.69.69c.02.01.04,0,.06-.02.03-.03.03-.06,0-.1h0Z"/>
  <path class="cls-1" d="M.43,.94c.12.13.25.26.35.42.08.12.06.26-.05.36-.06.05-.14.07-.21.07-.14.01-.29.02-.43.03-.06,0-.08.02-.08.07,0,.07.01.09.08.09.18-.01.36.01.54.05.18.04.26.25.16.4-.1.15-.22.29-.35.41-.04.04-.05.08-.01.12.04.04.08.04.12-.01.11-.12.23-.22.36-.31.04-.03.09-.06.15-.07.14-.03.28.06.31.2.04.18.05.36.05.55,0,.03.01.05.03.06.06.03.12-.01.12-.07,0-.01,0-.02,0-.03.02-.17.02-.33.05-.49.03-.19.23-.28.39-.18.07.04.14.09.2.15.09.07.17.15.25.22.03.02.06.03.08.01.02-.01.04-.04.04-.07,0-.01,0-.01,0-.02l-.69-.69s-.01.01-.01.01c-.19.19-.5.19-.69,0-.19-.19-.19-.5,0-.69,0,0,.01-.01.01-.01L.74.24c-.02-.01-.04,0-.06.02-.03.03-.03.06,0,.1h0Z"/>
</svg>
